<svg width="80" height="40" viewBox="0 0 80 40" fill="none" xmlns="http://www.w3.org/2000/svg">
<g clip-path="url(#clip0)">
<path d="M34.4789 11.2859C34.4287 12.035 34.3283 12.9838 34.0774 14.1323C35.7837 14.8315 36.7875 15.8302 36.8377 17.1785C36.9381 21.573 29.962 25.4682 29.962 25.4682L31.2167 28.764L31.6182 28.5144C31.6182 28.5144 40.7523 22.5718 40.6519 17.1286C40.5516 14.1823 38.1426 12.3346 34.4789 11.2859Z" fill="#2697D4"/>
<path d="M0.752815 13.7328C0.752815 13.7328 7.47796 12.8839 15.1065 12.5343L15.9095 10.6367C10.2383 11.2859 4.66745 12.4345 0.752815 13.7328Z" fill="#2697D4"/>
<path d="M33.4752 13.8326C33.7763 13.0336 33.977 12.1348 34.228 11.1859C31.2167 10.3869 27.3523 10.0873 23.2369 10.1373L24.2406 12.4843C27.8542 12.6341 31.1665 13.0336 33.4752 13.8326Z" fill="#2697D4"/>
<path d="M24.1904 12.4844L23.1867 10.1373C20.7777 10.1873 18.3185 10.3371 15.9095 10.6367L15.1065 12.5343C18.1177 12.3845 21.2795 12.3346 24.1904 12.4844Z" fill="#2697D4"/>
<path d="M25.6459 28.5144C22.9859 29.7628 18.7702 32.2098 15.9597 33.2584C8.78283 35.9551 2.25844 37.8028 2.25844 37.8028C6.37383 37.4532 11.9447 36.3546 17.4151 34.6567C19.7739 33.9576 24.5417 32.2597 26.75 31.3608L25.6459 28.5144Z" fill="#2697D4"/>
<path d="M32.9732 33.5079H27.6533L25.4952 28.1646L29.6106 24.619L32.9732 33.5079Z" fill="#11264A"/>
<path d="M34.4787 9.73767C34.3784 10.237 34.278 10.7364 34.1776 11.1859C34.278 11.2358 34.3784 11.2358 34.4787 11.2857C34.5289 10.5866 34.4787 10.0872 34.4787 9.73767Z" fill="#11264A"/>
<path d="M19.6231 1.74768L15.9594 10.6865C18.4186 10.4368 20.8777 10.2371 23.2366 10.1871L19.6231 1.74768Z" fill="#11264A"/>
<path d="M25.5955 23.4705C19.6232 27.9649 13.5505 29.2633 13.5505 29.2633L19.6232 13.3831L23.588 23.121L27.4524 19.9749L24.2404 12.4842C21.3295 12.3844 18.1677 12.4343 15.1565 12.5342L6.47401 33.508H11.9946C11.9946 33.508 17.716 32.8088 26.3483 25.468C31.4173 21.1734 33.3746 17.0785 34.0772 14.0823C33.8764 13.9824 33.6757 13.9324 33.4248 13.8326C32.2203 17.5279 30.1124 20.0248 25.5955 23.4705Z" fill="#11264A"/>
<path d="M34.1775 11.1859C33.9768 12.1347 33.7258 13.0336 33.4247 13.8326C33.6254 13.9325 33.8764 13.9824 34.0771 14.0823C34.3281 12.9837 34.4284 12.0349 34.4786 11.2359C34.3783 11.2359 34.2779 11.1859 34.1775 11.1859Z" fill="#11264A"/>
<path d="M52.21 17.8209L51.91 16.4478H50.2L49.9 17.8209H48.16L50.02 10.209H52.18L54.0401 17.8209H52.21ZM51.07 11.8508H51.04L50.38 15.0747H51.7L51.07 11.8508Z" fill="#2697D4"/>
<path d="M48.31 14.0299C48.31 14.597 48.25 15.1344 48.13 15.5821C48.01 16.0597 47.8 16.4478 47.56 16.7762C47.29 17.1045 46.96 17.3732 46.57 17.5523C46.18 17.7314 45.7 17.8209 45.16 17.8209H43V10.209H45.16C45.7 10.209 46.18 10.2985 46.57 10.4776C46.96 10.6567 47.29 10.9254 47.56 11.2538C47.83 11.5821 48.01 12 48.13 12.4478C48.25 12.9254 48.31 13.4329 48.31 14.0299ZM46.57 14.0299C46.57 13.2538 46.45 12.6866 46.18 12.2985C45.91 11.9105 45.58 11.7015 45.16 11.7015H44.74V16.2985H45.16C45.58 16.2985 45.91 16.0896 46.18 15.7015C46.45 15.3433 46.57 14.7761 46.57 14.0299Z" fill="#11264A"/>
<path d="M58.1201 17.8209C57.7601 17.9403 57.3701 18 56.8901 18C56.4101 18 55.9901 17.9104 55.6001 17.7015C55.2101 17.5224 54.9101 17.2239 54.6401 16.8955C54.3701 16.5373 54.19 16.1194 54.04 15.6418C53.89 15.1642 53.83 14.6269 53.83 14.0299C53.83 13.4328 53.89 12.8955 54.04 12.3881C54.19 11.9104 54.3701 11.4627 54.6401 11.1343C54.9101 10.7761 55.2101 10.5075 55.5701 10.2985C55.9301 10.1194 56.3501 10 56.7701 10C57.2801 10 57.7301 10.0896 58.0601 10.2687C58.4201 10.4478 58.6901 10.6567 58.9001 10.9254L57.9701 12.1791C57.7001 11.8209 57.3701 11.6418 56.9201 11.6418C56.6801 11.6418 56.4701 11.7015 56.2901 11.8209C56.1101 11.9403 55.9601 12.1194 55.8701 12.3284C55.7501 12.5373 55.6601 12.806 55.6301 13.0746C55.6001 13.3433 55.5401 13.6716 55.5401 14C55.5401 14.3284 55.5701 14.6269 55.6301 14.9254C55.6901 15.2239 55.7501 15.4627 55.8701 15.6716C55.9901 15.8806 56.1101 16.0597 56.2901 16.1791C56.4701 16.2985 56.6501 16.3582 56.8901 16.3582C57.1601 16.3582 57.3401 16.2985 57.4901 16.209V14.7761H56.6801V13.2836H59.0201V17.3433C58.7801 17.5522 58.4801 17.7015 58.1201 17.8209Z" fill="#11264A"/>
<path d="M59.9201 17.8209V10.209H61.6601V17.8209H59.9201Z" fill="#11264A"/>
<path d="M62.7701 17.8209V10.209H64.5101V16.2388H66.5501V17.8209H62.7701Z" fill="#11264A"/>
<path d="M67.0601 17.8209V10.209H68.8001V17.8209H67.0601Z" fill="#11264A"/>
<path d="M72.3102 11.6717V17.8209H70.6002V11.6717H69.1901V10.209H73.6902V11.6717H72.3102Z" fill="#11264A"/>
<path d="M77.4702 15.0747V17.8209H75.7602V15.0747L73.8402 10.209H75.7002L76.6302 13.3433H76.6602L77.5902 10.209H79.4202L77.4702 15.0747Z" fill="#11264A"/>
<path d="M43.0791 33.5V21.3311H46.8394C47.7248 21.3311 48.3778 21.4085 48.7983 21.5635C49.3739 21.7738 49.8332 22.1639 50.1763 22.7339C50.5194 23.3039 50.6909 24.0039 50.6909 24.834C50.6909 25.9297 50.4115 26.8234 49.8525 27.5151C49.2936 28.2069 48.328 28.5527 46.9556 28.5527H44.3989V33.5H43.0791ZM44.3989 27.1167H46.9805C47.7939 27.1167 48.3888 26.9341 48.7651 26.5688C49.1414 26.1981 49.3296 25.6419 49.3296 24.9004C49.3296 24.4189 49.2355 24.0067 49.0474 23.6636C48.8647 23.3205 48.6406 23.0853 48.375 22.958C48.1149 22.8307 47.6418 22.7671 46.9556 22.7671H44.3989V27.1167Z" fill="#FF5A1A"/>
<path d="M50.251 33.5L54.0859 21.3311H55.5054L59.5894 33.5H58.0786L56.9165 29.8145H52.7495L51.6538 33.5H50.251ZM53.1313 28.5029H56.5098L55.4722 25.1328C55.1512 24.098 54.916 23.2568 54.7666 22.6094C54.6393 23.3896 54.4595 24.1644 54.2271 24.9336L53.1313 28.5029Z" fill="#FF5A1A"/>
<path d="M67.7241 29.2334L69.0522 29.6401C68.759 31.007 68.2443 32.028 67.5083 32.7031C66.7778 33.3727 65.8869 33.7075 64.8354 33.7075C63.9113 33.7075 63.12 33.4834 62.4614 33.0352C61.8084 32.5814 61.2716 31.8564 60.8511 30.8604C60.436 29.8643 60.2285 28.6883 60.2285 27.3325C60.2285 25.9933 60.436 24.8617 60.8511 23.9375C61.2716 23.0078 61.8389 22.3078 62.5527 21.8374C63.2666 21.3615 64.0635 21.1235 64.9434 21.1235C65.9062 21.1235 66.7336 21.4251 67.4253 22.0283C68.117 22.626 68.6012 23.5059 68.8779 24.668L67.583 25.0415C67.1403 23.3481 66.2521 22.5015 64.9185 22.5015C64.2544 22.5015 63.6789 22.673 63.1919 23.0161C62.7049 23.3537 62.3148 23.8822 62.0215 24.6016C61.7337 25.321 61.5898 26.2313 61.5898 27.3325C61.5898 28.9982 61.8831 30.2489 62.4697 31.0845C63.0563 31.9146 63.8366 32.3296 64.8105 32.3296C65.5299 32.3296 66.1497 32.075 66.6699 31.5659C67.1956 31.0513 67.547 30.2738 67.7241 29.2334Z" fill="#FF5A1A"/>
<path d="M70.729 33.5V21.3311H77.9424V22.7671H72.0488V26.4941H77.5688V27.9219H72.0488V32.064H78.1748V33.5H70.729Z" fill="#FF5A1A"/>
<path d="M43.0791 33.5V21.3311H46.8394C47.7248 21.3311 48.3778 21.4085 48.7983 21.5635C49.3739 21.7738 49.8332 22.1639 50.1763 22.7339C50.5194 23.3039 50.6909 24.0039 50.6909 24.834C50.6909 25.9297 50.4115 26.8234 49.8525 27.5151C49.2936 28.2069 48.328 28.5527 46.9556 28.5527H44.3989V33.5H43.0791ZM44.3989 27.1167H46.9805C47.7939 27.1167 48.3888 26.9341 48.7651 26.5688C49.1414 26.1981 49.3296 25.6419 49.3296 24.9004C49.3296 24.4189 49.2355 24.0067 49.0474 23.6636C48.8647 23.3205 48.6406 23.0853 48.375 22.958C48.1149 22.8307 47.6418 22.7671 46.9556 22.7671H44.3989V27.1167Z" stroke="#FF5A1A"/>
<path d="M50.251 33.5L54.0859 21.3311H55.5054L59.5894 33.5H58.0786L56.9165 29.8145H52.7495L51.6538 33.5H50.251ZM53.1313 28.5029H56.5098L55.4722 25.1328C55.1512 24.098 54.916 23.2568 54.7666 22.6094C54.6393 23.3896 54.4595 24.1644 54.2271 24.9336L53.1313 28.5029Z" stroke="#FF5A1A"/>
<path d="M67.7241 29.2334L69.0522 29.6401C68.759 31.007 68.2443 32.028 67.5083 32.7031C66.7778 33.3727 65.8869 33.7075 64.8354 33.7075C63.9113 33.7075 63.12 33.4834 62.4614 33.0352C61.8084 32.5814 61.2716 31.8564 60.8511 30.8604C60.436 29.8643 60.2285 28.6883 60.2285 27.3325C60.2285 25.9933 60.436 24.8617 60.8511 23.9375C61.2716 23.0078 61.8389 22.3078 62.5527 21.8374C63.2666 21.3615 64.0635 21.1235 64.9434 21.1235C65.9062 21.1235 66.7336 21.4251 67.4253 22.0283C68.117 22.626 68.6012 23.5059 68.8779 24.668L67.583 25.0415C67.1403 23.3481 66.2521 22.5015 64.9185 22.5015C64.2544 22.5015 63.6789 22.673 63.1919 23.0161C62.7049 23.3537 62.3148 23.8822 62.0215 24.6016C61.7337 25.321 61.5898 26.2313 61.5898 27.3325C61.5898 28.9982 61.8831 30.2489 62.4697 31.0845C63.0563 31.9146 63.8366 32.3296 64.8105 32.3296C65.5299 32.3296 66.1497 32.075 66.6699 31.5659C67.1956 31.0513 67.547 30.2738 67.7241 29.2334Z" stroke="#FF5A1A"/>
<path d="M70.729 33.5V21.3311H77.9424V22.7671H72.0488V26.4941H77.5688V27.9219H72.0488V32.064H78.1748V33.5H70.729Z" stroke="#FF5A1A"/>
</g>
<defs>
<clipPath id="clip0">
<rect width="80" height="40" fill="white"/>
</clipPath>
</defs>
</svg>
